#!OML:ASF H:\ManfredETheater\Project 1\Capture day 1\Session 1\subject.ASF
:FULLY-SPECIFIED
:DEGREES
121
root -6.52227 15.48 26.0049 6.7044 -7.64988 3.2838
lowerback 13.5297 -1.64896 -2.08598
upperback 1.2228 -2.33698 2.467
thorax -6.10572 -1.06204 4.22417
lowerneck -20.5758 0.613821 -0.899442
upperneck 13.0438 2.27413 -6.66564
head 7.46612 0.372581 -1.78551
rclavicle -3.27995e-014 -9.54166e-015
rhumerus -59.1354 -3.29412 -72.793
rradius 87.6622
rwrist -7.53657
rhand -23.4264 10.2939
rfingers 7.12502
rthumb 3.03135 -19.6643
lclavicle -3.27995e-014 -9.54166e-015
lhumerus -48.8996 -12.9334 98.3492
lradius 114.867
lwrist 14.6791
lhand -17.2194 -10.4198
lfingers 7.12502
lthumb 9.02364 19.3672
rfemur -47.248 -1.22503 -6.35187
rtibia 42.9586
rfoot -1.50398 0.905497
rtoes -47.5802
lfemur -5.32582 -9.02061 -32.6852
ltibia 70.7788
lfoot 5.94756 -16.8507
ltoes -2.26981
122
root -6.67878 15.4292 26.5378 5.90138 -7.11352 3.28845
lowerback 14.1112 -1.62327 -2.02304
upperback 1.32572 -2.29514 2.51948
thorax -6.32297 -1.03828 4.26103
lowerneck -20.601 0.50347 -1.021
upperneck 13.1194 2.17819 -6.73778
head 7.49301 0.310633 -1.80239
rclavicle -1.09332e-014 -1.59028e-014
rhumerus -58.248 -3.08487 -72.8398
rradius 87.6732
rwrist -7.62786
rhand -23.4688 10.2401
rfingers 7.12502
rthumb 2.9904 -19.7187
lclavicle -1.09332e-014 -1.59028e-014
lhumerus -49.1393 -12.4755 97.9372
lradius 112.645
lwrist 14.1718
lhand -17.5733 -10.451
lfingers 7.12502
lthumb 8.68208 19.3504
rfemur -46.4141 -1.16817 -5.87248
rtibia 44.3478
rfoot -2.12558 0.798439
rtoes -45.84
lfemur -5.81199 -9.28839 -32.6712
ltibia 73.7761
lfoot 4.06169 -14.1759
ltoes -2.24037
123
root -6.83426 15.3787 27.0609 5.07606 -6.54725 3.10976
lowerback 14.837 -1.59881 -1.80953
upperback 1.44271 -2.22833 2.59856
thorax -6.61122 -1.00446 4.2419
lowerneck -20.5908 0.385111 -1.12208
upperneck 13.1207 2.05493 -6.78479
head 7.48808 0.242088 -1.81681
rclavicle 6.99722e-014 -3.33958e-014
rhumerus -57.1725 -2.85118 -72.983
rradius 87.553
rwrist -7.84047
rhand -23.5383 10.2075
rfingers 7.12502
rthumb 2.92326 -19.7522
lclavicle 6.99722e-014 -3.33958e-014
lhumerus -49.3863 -11.9037 97.5344
lradius 110.242
lwrist 13.4797
lhand -18.0599 -10.5032
lfingers 7.12502
lthumb 8.21252 19.3172
rfemur -45.4522 -1.12583 -5.17815
rtibia 46.3403
rfoot -3.24359 0.760728
rtoes -44.282
lfemur -6.59276 -9.27422 -32.3645
ltibia 76.9704
lfoot 2.4075 -11.5628
ltoes -1.65142
124
root -6.98707 15.3281 27.575 4.25747 -5.98729 2.70278
lowerback 15.6617 -1.58067 -1.3872
upperback 1.57558 -2.12768 2.71258
thorax -6.94474 -0.959048 4.1377
lowerneck -20.5617 0.267222 -1.18285
upperneck 13.0537 1.91459 -6.82709
head 7.45696 0.170398 -1.83749
rclavicle 3.04141e-014 -1.59028e-014
rhumerus -55.8959 -2.58377 -73.2124
rradius 87.2878
rwrist -8.12167
rhand -23.6218 10.1989
rfingers 7.12502
rthumb 2.84265 -19.7619
lclavicle 3.04141e-014 -1.59028e-014
lhumerus -49.6168 -11.1994 97.1278
lradius 107.672
lwrist 12.7086
lhand -18.6089 -10.5182
lfingers 7.12502
lthumb 7.68268 19.3222
rfemur -44.3437 -1.08292 -4.24332
rtibia 48.7387
rfoot -4.91814 0.670482
rtoes -43.1919
lfemur -7.68048 -9.00249 -31.723
ltibia 80.2739
lfoot 0.946149 -9.20595
ltoes -0.433256
125
root -7.13664 15.2776 28.081 3.46989 -5.46025 2.02531
lowerback 16.541 -1.57363 -0.719801
upperback 1.7274 -1.98467 2.87946
thorax -7.29512 -0.900329 3.94182
lowerneck -20.5378 0.15502 -1.19631
upperneck 12.9348 1.76693 -6.88007
head 7.40963 0.0980954 -1.86966
rclavicle -1.51076e-014 3.26007e-014
rhumerus -54.4054 -2.26657 -73.5035
rradius 86.8618
rwrist -8.40832
rhand -23.7156 10.199
rfingers 7.12502
rthumb 2.75206 -19.763
lclavicle -1.51076e-014 3.26007e-014
lhumerus -49.7923 -10.353 96.7036
lradius 104.928
lwrist 11.967
lhand -19.2055 -10.4997
lfingers 7.12502
lthumb 7.1068 19.361
rfemur -43.0674 -1.02102 -3.02633
rtibia 51.3312
rfoot -7.07469 0.331603
rtoes -42.7786
lfemur -9.09408 -8.49885 -30.6998
ltibia 83.6079
lfoot -0.43533 -7.24161
ltoes 0.996086
126
root -7.28232 15.2266 28.5805 2.75102 -4.97354 1.1052
lowerback 17.4039 -1.58263 0.164702
upperback 1.88898 -1.80356 3.10396
thorax -7.62893 -0.830934 3.67224
lowerneck -20.525 0.0475261 -1.18116
upperneck 12.7789 1.61646 -6.93932
head 7.35205 0.0261678 -1.9084
rclavicle -1.49089e-014 2.46493e-014
rhumerus -52.7165 -1.86489 -73.8155
rradius 86.284
rwrist -8.65256
rhand -23.8135 10.1843
rfingers 7.12502
rthumb 2.65747 -19.7789
lclavicle -1.49089e-014 2.46493e-014
lhumerus -49.8888 -9.36524 96.2582
lradius 102.005
lwrist 11.3686
lhand -19.8306 -10.4556
lfingers 7.12502
lthumb 6.50339 19.4245
rfemur -41.6094 -0.973374 -1.55189
rtibia 53.8552
rfoot -9.51244 -0.332667
rtoes -42.9904
lfemur -10.8346 -7.79292 -29.3302
ltibia 86.8613
lfoot -1.82444 -5.763
ltoes 2.26793
127
root -7.42313 15.1766 29.075 2.14075 -4.53089 0.021235
lowerback 18.1826 -1.60336 1.18471
upperback 2.04165 -1.59158 3.37873
thorax -7.92408 -0.752592 3.36659
lowerneck -20.5296 -0.058314 -1.15322
upperneck 12.6161 1.46677 -7.01039
head 7.29524 -0.0460702 -1.9529
rclavicle 1.15295e-014 -3.26007e-014
rhumerus -50.8702 -1.34508 -74.1038
rradius 85.589
rwrist -8.82175
rhand -23.8913 10.1069
rfingers 7.12502
rthumb 2.58236 -19.8572
lclavicle 1.15295e-014 -3.26007e-014
lhumerus -49.9045 -8.25596 95.7974
lradius 98.9047
lwrist 10.9653
lhand -20.4746 -10.3978
lfingers 7.12502
lthumb 5.88166 19.5005
rfemur -40.0222 -0.975464 0.100042
rtibia 56.2073
rfoot -12.0895 -1.2848
rtoes -43.5857
lfemur -12.9322 -6.91498 -27.7149
ltibia 89.9729
lfoot -3.2825 -4.79287
ltoes 3.32407
128
root -7.55388 15.1522 29.571 1.67604 -4.12217 -1.10943
lowerback 18.8068 -1.62012 2.22031
upperback 2.16911 -1.35644 3.68547
thorax -8.15554 -0.665569 3.0733
lowerneck -20.5522 -0.17079 -1.1435
upperneck 12.4734 1.3151 -7.0807
head 7.24784 -0.121076 -1.99465
rclavicle 2.92213e-014 -2.14687e-014
rhumerus -48.9242 -0.705661 -74.3256
rradius 84.8378
rwrist -8.87304
rhand -23.9614 9.96279
rfingers 7.12502
rthumb 2.51463 -20.0021
lclavicle 2.92213e-014 -2.14687e-014
lhumerus -49.8466 -7.07051 95.3346
lradius 95.6591
lwrist 10.7483
lhand -21.1291 -10.3357
lfingers 7.12502
lthumb 5.24966 19.5793
rfemur -38.2289 -1.05925 1.81433
rtibia 58.1785
rfoot -14.703 -2.4677
rtoes -44.3781
lfemur -15.332 -5.89 -26.0333
ltibia 92.7236
lfoot -4.75035 -4.31049
ltoes 3.88119
129
root -7.68519 15.1081 30.0602 1.36873 -3.74269 -2.1701
lowerback 19.2518 -1.61458 3.14271
upperback 2.25976 -1.10955 3.99801
thorax -8.3204 -0.570942 2.84042
lowerneck -20.6146 -0.290741 -1.13856
upperneck 12.3837 1.16194 -7.16413
head 7.22457 -0.200627 -2.04102
rclavicle -3.27995e-014 7.23576e-014
rhumerus -46.9433 0.041231 -74.4667
rradius 84.1244
rwrist -8.81177
rhand -24.0021 9.74462
rfingers 7.12502
rthumb 2.47535 -20.2208
lclavicle -3.27995e-014 7.23576e-014
lhumerus -49.751 -5.86453 94.8688
lradius 92.3529
lwrist 10.6813
lhand -21.774 -10.2858
lfingers 7.12502
lthumb 4.627 19.6437
rfemur -36.504 -1.23974 3.44083
rtibia 59.8785
rfoot -17.4056 -3.94517
rtoes -45.636
lfemur -18.1511 -4.73015 -24.4207
ltibia 95.2676
lfoot -6.29862 -4.30144
ltoes 4.08678
130
root -7.81201 15.0698 30.5492 1.20938 -3.37629 -3.05156
lowerback 19.5133 -1.56636 3.85218
upperback 2.29907 -0.854579 4.28834
thorax -8.4331 -0.466915 2.69624
lowerneck -20.6862 -0.430826 -1.17047
upperneck 12.3631 0.995388 -7.23741
head 7.22485 -0.289611 -2.08062
rclavicle 1.39149e-014 1.35174e-014
rhumerus -45.0338 0.845173 -74.5091
rradius 83.5723
rwrist -8.66233
rhand -24.015 9.46957
rfingers 7.12502
rthumb 2.46283 -20.496
lclavicle 1.39149e-014 1.35174e-014
lhumerus -49.7025 -4.72411 94.434
lradius 89.1242
lwrist 10.6785
lhand -22.3859 -10.2545
lfingers 7.12502
lthumb 4.03611 19.687
rfemur -34.7504 -1.50764 4.8619
rtibia 61.2144
rfoot -19.6157 -5.4568
rtoes -46.3371
lfemur -21.2578 -3.46808 -23.0769
ltibia 97.3975
lfoot -7.81216 -4.69113
ltoes 3.90556
131
root -7.93487 15.0342 31.0383 1.17702 -3.02699 -3.70701
lowerback 19.6183 -1.46783 4.3103
upperback 2.28854 -0.596009 4.53356
thorax -8.50936 -0.354216 2.64018
lowerneck -20.7786 -0.587806 -1.22822
upperneck 12.4251 0.81746 -7.29601
head 7.25516 -0.386663 -2.11395
rclavicle -1.43125e-014 -2.14687e-014
rhumerus -43.2633 1.65056 -74.476
rradius 83.3052
rwrist -8.50947
rhand -23.9946 9.17454
rfingers 7.12502
rthumb 2.48261 -20.7908
lclavicle -1.43125e-014 -2.14687e-014
lhumerus -49.7753 -3.72941 94.0416
lradius 86.1524
lwrist 10.6711
lhand -22.9254 -10.2664
lfingers 7.12502
lthumb 3.51514 19.6843
rfemur -32.9742 -1.83067 6.01433
rtibia 62.2751
rfoot -21.6898 -7.08969
rtoes -47.0111
lfemur -24.577 -2.14819 -22.1175
ltibia 99.0877
lfoot -9.27873 -5.37181
ltoes 3.27257
